<svg xmlns="http://www.w3.org/2000/svg" version="1.0" viewBox="0 0 820 1025" preserveAspectRatio="xMidYMid meet" x="0px" y="0px"><g transform="translate(0.000000,820.000000) scale(0.100000,-0.100000)" fill="#000000" stroke="none"><path d="M3304 7381 c-53 -39 -199 -191 -262 -275 -29 -38 -62 -76 -75 -84 -202 -136 -484 -399 -617 -576 -325 -434 -560 -996 -620 -1481 -17 -134 -14 -432 5 -560 49 -329 151 -578 417 -1020 249 -413 320 -563 402 -845 40 -140 77 -314 101 -470 22 -150 39 -437 28 -480 l-9 -35 -77 -6 c-104 -9 -156 -39 -193 -114 -44 -91 -25 -168 56 -223 32 -22 38 -22 324 -21 314 1 324 2 400 56 59 42 96 119 181 383 126 390 184 559 226 657 53 125 148 293 165 293 18 0 17 -5 0 -33 -8 -12 -25 -58 -38 -102 -20 -68 -23 -103 -23 -235 0 -137 3 -163 24 -229 44 -132 147 -273 249 -338 37 -24 51 -38 44 -45 -7 -7 -24 -5 -54 7 -67 27 -250 33 -318 10 -74 -25 -144 -95 -158 -158 -20 -95 28 -190 122 -240 l41 -22 825 -3 c926 -3 973 -1 1085 53 80 38 152 97 195 160 27 39 33 42 87 48 137 15 364 103 521 204 380 242 643 702 683 1193 8 97 8 184 0 310 -34 554 -35 577 -23 707 28 310 107 479 334 706 121 121 137 147 145 221 4 43 0 60 -24 106 -50 96 -151 147 -273 137 -224 -19 -449 -212 -590 -510 -129 -271 -174 -550 -150 -922 19 -309 24 -623 10 -733 -17 -137 -52 -267 -98 -366 -94 -201 -206 -318 -389 -410 -97 -48 -105 -47 -96 7 14 76 7 483 -11 614 -25 189 -62 376 -100 508 -48 166 -48 165 -103 305 -167 418 -422 771 -743 1027 -275 219 -578 357 -1060 483 -271 71 -344 107 -396 196 -55 93 -24 223 64 272 35 20 64 25 184 32 260 17 328 54 419 232 76 147 87 172 93 213 l7 40 -95 92 c-117 113 -158 173 -191 283 -49 162 -65 185 -200 275 -144 96 -165 123 -165 210 0 55 8 94 51 247 7 26 10 50 6 54 -7 7 -109 -73 -197 -155 -30 -28 -57 -51 -61 -51 -4 0 -8 93 -9 206 0 114 -3 211 -6 215 -9 16 -30 10 -70 -20z"/></g><text x="0" y="835" fill="#000000" font-size="5px" font-weight="bold" font-family="'Helvetica Neue', Helvetica, Arial-Unicode, Arial, Sans-serif"></text><text x="0" y="840" fill="#000000" font-size="5px" font-weight="bold" font-family="'Helvetica Neue', Helvetica, Arial-Unicode, Arial, Sans-serif"></text></svg>